HIERARCHY
ROOT hip
{
  OFFSET 0 0 0
  CHANNELS 6 Xposition Yposition Zposition Zrotation Yrotation Xrotation
  JOINT abdomen
  {
    OFFSET 0 20.6881 -0.73152
    CHANNELS 3 Zrotation Xrotation Yrotation
    JOINT chest
    {
      OFFSET 0 11.7043 -0.48768
      CHANNELS 3 Zrotation Xrotation Yrotation
      JOINT neck
      {
        OFFSET 0 22.1894 -2.19456
        CHANNELS 3 Zrotation Xrotation Yrotation
        JOINT head
        {
          OFFSET -0.24384 7.07133 1.2192
          CHANNELS 3 Zrotation Xrotation Yrotation
          JOINT leftEye
          {
            OFFSET 4.14528 8.04674 8.04672
            CHANNELS 3 Zrotation Xrotation Yrotation
            End Site
            {
              OFFSET 1 0 0
            }
          }
          JOINT rightEye
          {
            OFFSET -3.6576 8.04674 8.04672
            CHANNELS 3 Zrotation Xrotation Yrotation
            End Site
            {
              OFFSET 1 0 0
            }
          }
        }
      }
      JOINT rCollar
      {
        OFFSET -2.68224 19.2634 -4.8768
        CHANNELS 3 Zrotation Xrotation Yrotation
        JOINT rShldr
        {
          OFFSET -8.77824 -1.95073 1.46304
          CHANNELS 3 Zrotation Xrotation Yrotation
          JOINT rForeArm
          {
            OFFSET -28.1742 -1.7115 0.48768
            CHANNELS 3 Zrotation Xrotation Yrotation
            JOINT rHand
            {
              OFFSET -22.5879 0.773209 7.07136
              CHANNELS 3 Zrotation Xrotation Yrotation
              JOINT rThumb1
              {
                OFFSET -1.2192 -0.487915 3.41376
                CHANNELS 3 Zrotation Xrotation Yrotation
                JOINT rThumb2
                {
                  OFFSET -3.37035 -0.52449 3.41376
                  CHANNELS 3 Zrotation Xrotation Yrotation
                  End Site
                  {
                    OFFSET -1.78271 -1.18214 1.43049
                  }
                }
              }
              JOINT rIndex1
              {
                OFFSET -7.75947 0.938293 5.60832
                CHANNELS 3 Zrotation Xrotation Yrotation
                JOINT rIndex2
                {
                  OFFSET -2.54057 -0.884171 1.56538
                  CHANNELS 3 Zrotation Xrotation Yrotation
                  End Site
                  {
                    OFFSET -1.62519 -0.234802 1.16502
                  }
                }
              }
              JOINT rMid1
              {
                OFFSET -8.24714 1.18213 3.41376
                CHANNELS 3 Zrotation Xrotation Yrotation
                JOINT rMid2
                {
                  OFFSET -3.10165 -0.590103 1.0647
                  CHANNELS 3 Zrotation Xrotation Yrotation
                  End Site
                  {
                    OFFSET -2.48547 -0.328903 0.83742
                  }
                }
              }
              JOINT rRing1
              {
                OFFSET -8.82822 0.546677 1.51678
                CHANNELS 3 Zrotation Xrotation Yrotation
                JOINT rRing2
                {
                  OFFSET -2.60934 -0.819778 -0.0198488
                  CHANNELS 3 Zrotation Xrotation Yrotation
                  End Site
                  {
                    OFFSET -2.33842 -0.294052 0.168128
                  }
                }
              }
              JOINT rPinky1
              {
                OFFSET -8.27202 -0.0477905 -0.4584
                CHANNELS 3 Zrotation Xrotation Yrotation
                JOINT rPinky2
                {
                  OFFSET -1.82734 -0.647385 -0.700984
                  CHANNELS 3 Zrotation Xrotation Yrotation
                  End Site
                  {
                    OFFSET -1.69225 -0.51767 -0.607171
                  }
                }
              }
            }
          }
        }
      }
      JOINT lCollar
      {
        OFFSET 2.68224 19.2634 -4.8768
        CHANNELS 3 Zrotation Xrotation Yrotation
        JOINT lShldr
        {
          OFFSET 8.77824 -1.95073 1.46304
          CHANNELS 3 Zrotation Xrotation Yrotation
          JOINT lForeArm
          {
            OFFSET 28.1742 -1.7115 0.48768
            CHANNELS 3 Zrotation Xrotation Yrotation
            JOINT lHand
            {
              OFFSET 22.5879 0.773209 7.07136
              CHANNELS 3 Zrotation Xrotation Yrotation
              JOINT lThumb1
              {
                OFFSET 1.2192 -0.487915 3.41376
                CHANNELS 3 Zrotation Xrotation Yrotation
                JOINT lThumb2
                {
                  OFFSET 3.37035 -0.52449 3.41376
                  CHANNELS 3 Zrotation Xrotation Yrotation
                  End Site
                  {
                    OFFSET 1.78271 -1.18214 1.43049
                  }
                }
              }
              JOINT lIndex1
              {
                OFFSET 7.75947 0.938293 5.60832
                CHANNELS 3 Zrotation Xrotation Yrotation
                JOINT lIndex2
                {
                  OFFSET 2.54057 -0.884171 1.56538
                  CHANNELS 3 Zrotation Xrotation Yrotation
                  End Site
                  {
                    OFFSET 1.62519 -0.234802 1.16502
                  }
                }
              }
              JOINT lMid1
              {
                OFFSET 8.24714 1.18213 3.41376
                CHANNELS 3 Zrotation Xrotation Yrotation
                JOINT lMid2
                {
                  OFFSET 3.10165 -0.590103 1.0647
                  CHANNELS 3 Zrotation Xrotation Yrotation
                  End Site
                  {
                    OFFSET 2.48547 -0.328903 0.83742
                  }
                }
              }
              JOINT lRing1
              {
                OFFSET 8.82822 0.546677 1.51678
                CHANNELS 3 Zrotation Xrotation Yrotation
                JOINT lRing2
                {
                  OFFSET 2.60934 -0.819778 -0.0198488
                  CHANNELS 3 Zrotation Xrotation Yrotation
                  End Site
                  {
                    OFFSET 2.33842 -0.294052 0.168128
                  }
                }
              }
              JOINT lPinky1
              {
                OFFSET 8.27202 -0.0477905 -0.4584
                CHANNELS 3 Zrotation Xrotation Yrotation
                JOINT lPinky2
                {
                  OFFSET 1.82734 -0.647385 -0.700984
                  CHANNELS 3 Zrotation Xrotation Yrotation
                  End Site
                  {
                    OFFSET 1.69225 -0.51767 -0.607171
                  }
                }
              }
            }
          }
        }
      }
    }
  }
  JOINT rButtock
  {
    OFFSET -8.77824 4.35084 1.2192
    CHANNELS 3 Zrotation Xrotation Yrotation
    JOINT rThigh
    {
      OFFSET 0 -1.70687 -2.19456
      CHANNELS 3 Zrotation Xrotation Yrotation
      JOINT rShin
      {
        OFFSET 0 -36.8199 0.73152
        CHANNELS 3 Zrotation Xrotation Yrotation
        JOINT rFoot
        {
          OFFSET 0.73152 -45.1104 -5.12064
          CHANNELS 3 Zrotation Xrotation Yrotation
          End Site
          {
            OFFSET -1.1221 -3.69964 12.103
          }
        }
      }
    }
  }
  JOINT lButtock
  {
    OFFSET 8.77824 4.35084 1.2192
    CHANNELS 3 Zrotation Xrotation Yrotation
    JOINT lThigh
    {
      OFFSET 0 -1.70687 -2.19456
      CHANNELS 3 Zrotation Xrotation Yrotation
      JOINT lShin
      {
        OFFSET 0 -36.8199 0.73152
        CHANNELS 3 Zrotation Xrotation Yrotation
        JOINT lFoot
        {
          OFFSET -0.73152 -45.1104 -5.12064
          CHANNELS 3 Zrotation Xrotation Yrotation
          End Site
          {
            OFFSET 1.1221 -3.69964 12.103
          }
        }
      }
    }
  }
}
MOTION
Frames:	6
Frame Time:	0.00833333
-195.117 85.1731 8.08704 0.0 0.0 0.0 0.512932 -0.00341814 0.0146932 0.141687 -0.00540198 0.0245504 -4.88884e-15 -2.38542e-15 1.86361e-17 -1.47318e-14 -6.36111e-15 1.2424e-17 -0.0 0.0 0.0 -0.0 0.0 0.0 -2.4364e-15 2.07714e-17 1.98785e-16 -4.85584e-14 6.70898e-16 5.96354e-16 -8.8166e-13 2.78696e-13 -1.90833e-14 -1.01285e-11 -1.95728e-13 -6.36111e-15 -2.38844e-11 1.75353e-13 -2.22639e-14 -4.12546e-11 2.95792e-13 -2.78299e-14 -2.38792e-11 1.78111e-13 -3.18055e-14 7.73091 5.47488 0.417314 -2.38846e-11 1.75726e-13 -1.90833e-14 2.90554 0.965183 0.102902 -2.38821e-11 1.75527e-13 -1.35174e-14 10.2786 0.731801 0.0259123 -2.38927e-11 1.75328e-13 0.0 2.22167 -0.733487 -0.20892 -2.43399e-15 2.07714e-17 -1.98785e-16 -5.40453e-14 6.64686e-16 -9.93923e-16 -8.86729e-13 -2.50667e-13 2.54444e-14 -1.0117e-11 3.33362e-13 -1.90833e-14 -2.38683e-11 1.73465e-13 -9.54166e-15 -4.12116e-11 2.95792e-13 -1.43125e-14 -2.3874e-11 1.76521e-13 6.36111e-15 -7.73091 5.47488 -0.417314 -2.38679e-11 1.73638e-13 -9.54166e-15 -2.90554 0.965183 -0.102902 -2.3876e-11 1.73539e-13 -1.03368e-14 -10.2786 0.731801 -0.0259123 -2.38603e-11 1.75726e-13 -1.90833e-14 -2.22167 -0.733487 0.20892 -2.03217e-16 0.0 -3.88251e-19 0.859998 -4.41146 -0.0729701 -0.00213117 2.43942 -0.0112526 -0.474432 1.97258 0.0938363 2.03217e-16 0.0 3.88251e-19 -0.077702 -2.42095 0.0232545 0.00766789 -1.16604 0.0660004 0.46579 3.58744 -0.125218
-189.062 82.793 3.06739 -50.7111 80.81 -42.3895 2.08277 3.81104 1.81099 -1.2038 0.228997 0.63097 1.9092 2.07288 0.818536 -2.59964 -11.8323 0.602437 -0.0 0.0 0.0 -0.0 0.0 0.0 -1.25921e-13 -6.84886e-13 -5.48871e-15 17.6959 12.6402 -2.70173 -29.6232 -26.6575 12.5091 0.106814 -7.30477 -0.997446 -2.53725e-10 -2.42454e-10 -3.49329e-10 -4.32774e-10 -4.2235e-10 -6.08223e-10 -2.5372e-10 -2.42453e-10 -3.49342e-10 7.73091 5.47488 0.417314 -2.53725e-10 -2.42455e-10 -3.49328e-10 2.90554 0.965183 0.102902 -2.53721e-10 -2.42455e-10 -3.49323e-10 10.2786 0.731801 0.0259123 -2.53731e-10 -2.42455e-10 -3.49311e-10 2.22167 -0.733487 -0.20892 -1.25928e-13 -6.84886e-13 -5.82959e-15 -24.1536 6.86635 13.7828 24.5862 -22.418 -14.5393 -0.023722 -3.42247 0.477918 6.0742e-11 4.69524e-10 1.50383e-10 1.01655e-10 8.11122e-10 2.62152e-10 6.07343e-11 4.69529e-10 1.50396e-10 -7.73091 5.47488 -0.417314 6.07424e-11 4.69524e-10 1.50383e-10 -2.90554 0.965183 -0.102902 6.0732e-11 4.69524e-10 1.50382e-10 -10.2786 0.731801 -0.0259123 6.07466e-11 4.69525e-10 1.50373e-10 -2.22167 -0.733487 0.20892 -2.03217e-16 0.0 -3.88251e-19 4.85616 2.54597 1.6945 0.0499342 5.51199 0.192943 -0.459907 3.36312 -8.09207 2.03217e-16 0.0 3.88251e-19 3.49993 -14.49 -3.51719 -0.0764868 8.45057 -0.185159 1.20021 -3.69033 4.80188
-183.336 83.9651 2.88577 -55.0282 81.5833 -45.6711 3.52532 7.82106 3.77515 -2.63027 0.47317 1.28541 3.87119 4.2802 1.69017 -5.11705 -24.3849 1.31431 -0.0 0.0 0.0 -0.0 0.0 0.0 -2.63233e-13 -1.44567e-12 -1.14394e-14 37.6756 25.8431 -5.88166 -42.7232 -49.8814 37.1203 -0.0657946 -14.924 -2.09441 -4.83554e-10 -4.99375e-10 -6.91675e-10 -8.24932e-10 -8.69858e-10 -1.20423e-09 -4.83549e-10 -4.99376e-10 -6.91693e-10 7.73091 5.47488 0.417314 -4.83554e-10 -4.99377e-10 -6.91678e-10 2.90554 0.965183 0.102902 -4.8355e-10 -4.99377e-10 -6.91674e-10 10.2786 0.731801 0.0259123 -4.83559e-10 -4.99376e-10 -6.91662e-10 2.22167 -0.733487 -0.20892 -2.63247e-13 -1.44567e-12 -1.1719e-14 -53.2838 12.768 29.0999 35.4087 -40.8199 -37.7372 0.013674 -7.01848 0.985878 1.49087e-10 9.77203e-10 2.80734e-10 2.51034e-10 1.6881e-09 4.89791e-10 1.49077e-10 9.7721e-10 2.80744e-10 -7.73091 5.47488 -0.417314 1.49087e-10 9.77204e-10 2.80734e-10 -2.90554 0.965183 -0.102902 1.49074e-10 9.77204e-10 2.80733e-10 -10.2786 0.731801 -0.0259123 1.49088e-10 9.77204e-10 2.80725e-10 -2.22167 -0.733487 0.20892 -2.03217e-16 0.0 -3.88251e-19 8.62969 10.0408 3.71432 0.0815981 8.28524 0.409664 0.0360096 4.78478 -16.8251 2.03217e-16 0.0 3.88251e-19 5.55362 -27.1154 -7.99204 -0.0743915 18.5507 -0.478336 3.41023 -11.3286 10.3178
-177.725 84.6095 2.87492 -66.0953 81.346 -56.0387 4.4938 11.3943 5.50029 -3.90966 0.697475 1.84393 5.5491 6.21354 2.46851 -6.90822 -35.4794 2.17241 -0.0 0.0 0.0 -0.0 0.0 0.0 -3.72892e-13 -2.0547e-12 -1.68637e-14 57.4402 37.5375 -9.99254 -30.8381 -55.6067 77.6036 -0.492552 -21.8867 -3.19882 -7.13405e-10 -7.27713e-10 -1.04794e-09 -1.21581e-09 -1.26764e-09 -1.82461e-09 -7.13401e-10 -7.27716e-10 -1.04796e-09 7.73091 5.47488 0.417314 -7.13405e-10 -7.27717e-10 -1.04795e-09 2.90554 0.965183 0.102902 -7.134e-10 -7.27717e-10 -1.04794e-09 10.2786 0.731801 0.0259123 -7.13409e-10 -7.27715e-10 -1.04793e-09 2.22167 -0.733487 -0.20892 -3.72915e-13 -2.0547e-12 -1.70912e-14 -81.7135 15.8295 43.0432 31.0873 -45.5323 -67.2949 0.102472 -10.2645 1.45448 2.29962e-10 1.40822e-09 4.51167e-10 3.87389e-10 2.43277e-09 7.86483e-10 2.29951e-10 1.40823e-09 4.51175e-10 -7.73091 5.47488 -0.417314 2.29963e-10 1.40823e-09 4.51167e-10 -2.90554 0.965183 -0.102902 2.29948e-10 1.40823e-09 4.51166e-10 -10.2786 0.731801 -0.0259123 2.2996e-10 1.40822e-09 4.51158e-10 -2.22167 -0.733487 0.20892 -2.03217e-16 0.0 -3.88251e-19 11.5218 16.3939 5.44604 0.0871186 11.6566 0.611242 0.719705 5.68469 -24.5503 2.03217e-16 0.0 3.88251e-19 5.17583 -37.9758 -13.0617 0.0337559 27.6818 -0.769501 6.52466 -17.6724 15.3675
-172.235 85.1955 2.82402 -73.958 81.0944 -63.2814 4.81754 13.9232 6.53229 -4.81066 0.872438 2.16256 6.64649 7.46696 3.00077 -7.51493 -42.9426 3.07688 -0.0 0.0 0.0 -0.0 0.0 0.0 -4.13418e-13 -2.28433e-12 -2.09718e-14 73.9117 45.6944 -15.0204 -25.0181 -47.964 99.8807 -1.00502 -27.2314 -4.14758 -9.43311e-10 -8.84598e-10 -1.43901e-09 -1.6035e-09 -1.54111e-09 -2.50593e-09 -9.43308e-10 -8.846e-10 -1.43903e-09 7.73091 5.47488 0.417314 -9.43311e-10 -8.84602e-10 -1.43901e-09 2.90554 0.965183 0.102902 -9.43306e-10 -8.84601e-10 -1.43901e-09 10.2786 0.731801 0.0259123 -9.43313e-10 -8.846e-10 -1.439e-09 2.22167 -0.733487 -0.20892 -4.13454e-13 -2.28433e-12 -2.11706e-14 -102.048 16.6142 51.9905 27.9655 -40.5926 -84.9902 0.199998 -12.6383 1.80588 2.92166e-10 1.6476e-09 7.21805e-10 4.91189e-10 2.84671e-09 1.25581e-09 2.92153e-10 1.64761e-09 7.21811e-10 -7.73091 5.47488 -0.417314 2.92166e-10 1.6476e-09 7.21805e-10 -2.90554 0.965183 -0.102902 2.92151e-10 1.6476e-09 7.21804e-10 -10.2786 0.731801 -0.0259123 2.92163e-10 1.6476e-09 7.21795e-10 -2.22167 -0.733487 0.20892 -2.03217e-16 0.0 -3.88251e-19 13.3287 19.9803 6.16856 0.0551399 16.5235 0.773605 0.956072 5.74999 -29.6683 2.03217e-16 0.0 3.88251e-19 3.15417 -45.1041 -17.1883 0.193336 34.3923 -0.973577 8.89276 -21.4353 18.4222
-166.78 84.9031 2.68152 -82.0053 80.9228 -71.5705 4.71624 14.9757 6.47371 -5.24064 1.0413 2.14187 6.9913 7.71697 3.18502 -6.85882 -45.2209 3.74123 -0.0 0.0 0.0 -0.0 0.0 0.0 -3.43965e-13 -1.94577e-12 -2.88618e-14 83.8167 49.2319 -19.927 -25.5794 -43.0767 104.091 -1.36292 -30.413 -4.75765 -1.37114e-09 -9.64441e-10 -2.09397e-09 -2.32137e-09 -1.68034e-09 -3.64997e-09 -1.37114e-09 -9.64439e-10 -2.09399e-09 7.73091 5.47488 0.417314 -1.37114e-09 -9.64443e-10 -2.09398e-09 2.90554 0.965183 0.102902 -1.37114e-09 -9.64443e-10 -2.09397e-09 10.2786 0.731801 0.0259123 -1.37115e-09 -9.64442e-10 -2.09397e-09 2.22167 -0.733487 -0.20892 -3.4402e-13 -1.94577e-12 -2.90703e-14 -109.169 17.0945 53.8727 27.9674 -37.1938 -89.6183 0.256516 -13.8487 1.98797 3.63137e-10 1.66501e-09 1.53393e-09 6.05763e-10 2.87785e-09 2.66081e-09 3.63125e-10 1.66502e-09 1.53394e-09 -7.73091 5.47488 -0.417314 3.63138e-10 1.66501e-09 1.53393e-09 -2.90554 0.965183 -0.102902 3.63126e-10 1.66501e-09 1.53393e-09 -10.2786 0.731801 -0.0259123 3.63136e-10 1.66501e-09 1.53392e-09 -2.22167 -0.733487 0.20892 -2.03217e-16 0.0 -3.88251e-19 14.2542 20.0153 5.15202 -0.0176307 23.4535 0.886692 0.153141 4.82101 -31.1602 2.03217e-16 0.0 3.88251e-19 1.95149 -47.7297 -17.6628 0.292972 37.5369 -0.966489 8.68959 -21.7657 17.9051
